<svg xmlns="http://www.w3.org/2000/svg" xmlns:xlink="http://www.w3.org/1999/xlink" width="1080" zoomAndPan="magnify" viewBox="0 0 810 299.999988" height="400" preserveAspectRatio="xMidYMid meet" version="1.0"><defs><g/><clipPath id="9474c7160a"><path d="M 179 50 L 327.757812 50 L 327.757812 182 L 179 182 Z M 179 50 " clip-rule="nonzero"/></clipPath></defs><path fill="#58c1d7" d="M 130.261719 211.75 L 130.261719 229.863281 L 48.183594 191.75 L 48.183594 177.050781 L 130.261719 138.933594 L 130.261719 157.050781 L 68.1875 184.226562 L 68.1875 184.570312 Z M 179.003906 118.800781 L 41.746094 118.800781 C 35.265625 118.800781 30.011719 124.050781 30.011719 130.53125 L 30.011719 238.269531 C 30.011719 244.746094 35.265625 249.996094 41.746094 249.996094 L 140.902344 249.996094 L 179.003906 118.800781 " fill-opacity="1" fill-rule="nonzero"/><g clip-path="url(#9474c7160a)"><path fill="#ffffff" d="M 309.605469 123.460938 L 227.53125 161.066406 L 227.53125 142.945312 L 290.96875 115.769531 L 290.96875 115.425781 L 227.53125 88.246094 L 227.53125 70.132812 L 309.605469 107.734375 Z M 217.113281 50 L 179.003906 181.195312 L 316.042969 181.195312 C 322.523438 181.195312 327.777344 175.945312 327.777344 169.464844 L 327.777344 61.726562 C 327.777344 55.25 322.523438 50 316.042969 50 L 217.113281 50 " fill-opacity="1" fill-rule="nonzero"/></g><g fill="#ffffff" fill-opacity="1"><g transform="translate(395.744456, 180.263171)"><g><path d="M 39.648438 -80.683594 L 9.222656 -80.683594 L 9.222656 0 L 39.648438 0 C 63.394531 0 80.566406 -16.941406 80.566406 -40.339844 C 80.566406 -63.738281 63.394531 -80.683594 39.648438 -80.683594 Z M 39.304688 -16.136719 L 26.625 -16.136719 L 26.625 -64.429688 L 39.304688 -64.429688 C 53.132812 -64.429688 62.703125 -54.632812 62.703125 -40.339844 C 62.703125 -26.277344 53.132812 -16.136719 39.304688 -16.136719 Z M 39.304688 -16.136719 "/></g></g></g><g fill="#ffffff" fill-opacity="1"><g transform="translate(482.292323, 180.263171)"><g><path d="M 37 1.84375 C 53.25 1.84375 66.042969 -8.757812 68.925781 -24.433594 L 51.980469 -24.433594 C 49.101562 -17.75 43.796875 -14.0625 37 -14.0625 C 28.007812 -14.0625 20.976562 -21.554688 20.976562 -31.121094 C 20.976562 -40.800781 27.894531 -48.179688 37 -48.179688 C 43.683594 -48.179688 49.332031 -44.488281 51.980469 -38.382812 L 68.695312 -38.382812 C 65.699219 -53.710938 53.25 -63.96875 37.113281 -63.96875 C 18.210938 -63.96875 3.917969 -49.90625 3.917969 -31.234375 C 3.917969 -12.5625 18.210938 1.84375 37 1.84375 Z M 37 1.84375 "/></g></g></g><g fill="#ffffff" fill-opacity="1"><g transform="translate(555.472003, 180.263171)"><g><path d="M 37.574219 1.84375 C 56.824219 1.84375 71.230469 -12.332031 71.230469 -31.121094 C 71.230469 -49.90625 56.824219 -63.96875 37.574219 -63.96875 C 18.328125 -63.96875 3.917969 -49.90625 3.917969 -31.121094 C 3.917969 -12.332031 18.328125 1.84375 37.574219 1.84375 Z M 37.574219 -14.0625 C 27.894531 -14.0625 20.976562 -20.976562 20.976562 -31.121094 C 20.976562 -41.148438 27.894531 -48.179688 37.574219 -48.179688 C 47.257812 -48.179688 54.171875 -41.148438 54.171875 -31.121094 C 54.171875 -20.976562 47.257812 -14.0625 37.574219 -14.0625 Z M 37.574219 -14.0625 "/></g></g></g><g fill="#ffffff" fill-opacity="1"><g transform="translate(631.878464, 180.263171)"><g><path d="M 53.710938 -84.601562 L 53.710938 -58.78125 C 48.871094 -62.125 43.105469 -63.96875 36.652344 -63.96875 C 17.75 -63.96875 3.917969 -49.90625 3.917969 -31.003906 C 3.917969 -12.21875 17.75 1.960938 36.652344 1.960938 C 44.257812 1.960938 50.945312 -0.691406 56.132812 -5.070312 L 58.089844 0.117188 L 70.539062 0.117188 L 70.539062 -84.601562 Z M 38.035156 -13.945312 C 28.238281 -13.945312 21.09375 -21.324219 21.09375 -31.003906 C 21.09375 -40.800781 28.238281 -48.0625 38.035156 -48.0625 C 47.832031 -48.0625 54.980469 -40.800781 54.980469 -31.003906 C 54.980469 -21.324219 47.832031 -13.945312 38.035156 -13.945312 Z M 38.035156 -13.945312 "/></g></g></g><g fill="#ffffff" fill-opacity="1"><g transform="translate(711.742205, 180.263171)"><g><path d="M 68.464844 -31.234375 C 68.464844 -49.214844 55.324219 -63.96875 36.191406 -63.96875 C 17.75 -63.96875 3.917969 -49.792969 3.917969 -31.121094 C 3.917969 -12.449219 17.863281 1.84375 36.191406 1.84375 C 50.714844 1.84375 62.585938 -6.800781 67.082031 -20.402344 L 49.445312 -20.402344 C 46.910156 -15.90625 42.070312 -13.140625 36.191406 -13.140625 C 28.007812 -13.140625 22.476562 -17.863281 20.976562 -26.394531 L 68.117188 -26.394531 C 68.347656 -28.007812 68.464844 -29.621094 68.464844 -31.234375 Z M 36.191406 -49.5625 C 43.796875 -49.5625 49.214844 -45.414062 51.636719 -37.804688 L 21.4375 -37.804688 C 23.398438 -45.183594 28.699219 -49.5625 36.191406 -49.5625 Z M 36.191406 -49.5625 "/></g></g></g></svg>