<svg xmlns="http://www.w3.org/2000/svg" xmlns:xlink="http://www.w3.org/1999/xlink" width="1080" zoomAndPan="magnify" viewBox="0 0 810 809.999993" height="1080" preserveAspectRatio="xMidYMid meet" version="1.0"><defs><clipPath id="2324f95a7d"><path d="M 29.488281 326 L 406 326 L 406 657 L 29.488281 657 Z M 29.488281 326 " clip-rule="nonzero"/></clipPath><clipPath id="db2e4ad5b3"><path d="M 405 152.46875 L 780.238281 152.46875 L 780.238281 484 L 405 484 Z M 405 152.46875 " clip-rule="nonzero"/></clipPath></defs><rect x="-81" width="972" fill="#ffffff" y="-80.999999" height="971.999992" fill-opacity="1"/><rect x="-81" width="972" fill="#ffffff" y="-80.999999" height="971.999992" fill-opacity="1"/><rect x="-81" width="972" fill="#000000" y="-80.999999" height="971.999992" fill-opacity="1"/><g clip-path="url(#2324f95a7d)"><path fill="#58c1d7" d="M 282.28125 560.519531 L 282.28125 606.203125 L 75.332031 510.085938 L 75.332031 473.015625 L 282.28125 376.894531 L 282.28125 422.589844 L 125.773438 491.117188 L 125.773438 491.980469 Z M 405.183594 326.125 L 59.105469 326.125 C 42.765625 326.125 29.519531 339.371094 29.519531 355.710938 L 29.519531 627.398438 C 29.519531 643.726562 42.765625 656.96875 59.105469 656.96875 L 309.113281 656.96875 L 405.183594 326.125 " fill-opacity="1" fill-rule="nonzero"/></g><g clip-path="url(#db2e4ad5b3)"><path fill="#ffffff" d="M 734.472656 337.882812 L 527.53125 432.707031 L 527.53125 387.011719 L 687.480469 318.484375 L 687.480469 317.621094 L 527.53125 249.082031 L 527.53125 203.398438 L 734.472656 298.222656 Z M 501.261719 152.628906 L 405.183594 483.472656 L 750.707031 483.472656 C 767.042969 483.472656 780.289062 470.230469 780.289062 453.890625 L 780.289062 182.203125 C 780.289062 165.871094 767.042969 152.628906 750.707031 152.628906 L 501.261719 152.628906 " fill-opacity="1" fill-rule="nonzero"/></g></svg>